Montserrat-Light.ufo
<glyph name="percent" format="2">
  <advance width="800"/>
  <unicode hex="0025"/>
  <outline>
    <contour>
      <point x="150" y="0" type="line"/>
      <point x="172" y="0" type="line"/>
      <point x="650" y="700" type="line"/>
      <point x="628" y="700" type="line"/>
    </contour>
    <contour>
      <point x="199" y="327" type="curve" smooth="yes"/>
      <point x="286" y="327"/>
      <point x="348" y="401"/>
      <point x="348" y="515" type="curve" smooth="yes"/>
      <point x="348" y="629"/>
      <point x="286" y="703"/>
      <point x="199" y="703" type="curve" smooth="yes"/>
      <point x="112" y="703"/>
      <point x="50" y="629"/>
      <point x="50" y="515" type="curve" smooth="yes"/>
      <point x="50" y="401"/>
      <point x="112" y="327"/>
    </contour>
    <contour>
      <point x="199" y="346" type="curve" smooth="yes"/>
      <point x="123" y="346"/>
      <point x="70" y="410"/>
      <point x="70" y="515" type="curve" smooth="yes"/>
      <point x="70" y="620"/>
      <point x="123" y="684"/>
      <point x="199" y="684" type="curve" smooth="yes"/>
      <point x="275" y="684"/>
      <point x="328" y="620"/>
      <point x="328" y="515" type="curve" smooth="yes"/>
      <point x="328" y="410"/>
      <point x="275" y="346"/>
    </contour>
    <contour>
      <point x="601" y="-3" type="curve" smooth="yes"/>
      <point x="688" y="-3"/>
      <point x="750" y="71"/>
      <point x="750" y="185" type="curve" smooth="yes"/>
      <point x="750" y="299"/>
      <point x="688" y="373"/>
      <point x="601" y="373" type="curve" smooth="yes"/>
      <point x="514" y="373"/>
      <point x="452" y="299"/>
      <point x="452" y="185" type="curve" smooth="yes"/>
      <point x="452" y="71"/>
      <point x="514" y="-3"/>
    </contour>
    <contour>
      <point x="601" y="16" type="curve" smooth="yes"/>
      <point x="525" y="16"/>
      <point x="472" y="80"/>
      <point x="472" y="185" type="curve" smooth="yes"/>
      <point x="472" y="290"/>
      <point x="525" y="354"/>
      <point x="601" y="354" type="curve" smooth="yes"/>
      <point x="677" y="354"/>
      <point x="730" y="290"/>
      <point x="730" y="185" type="curve" smooth="yes"/>
      <point x="730" y="80"/>
      <point x="677" y="16"/>
    </contour>
  </outline>
</glyph>
<glyph name="C" format="2">
  <advance width="711"/>
  <unicode hex="0043"/>
  <anchor x="408" y="0" name="bottom"/>
  <anchor x="408" y="700" name="top"/>
  <outline>
    <contour>
      <point x="418" y="-3" type="curve" smooth="yes"/>
      <point x="510" y="-3"/>
      <point x="596" y="27"/>
      <point x="656" y="87" type="curve"/>
      <point x="644" y="101" type="line"/>
      <point x="580" y="40"/>
      <point x="503" y="16"/>
      <point x="418" y="16" type="curve" smooth="yes"/>
      <point x="225" y="16"/>
      <point x="79" y="161"/>
      <point x="79" y="350" type="curve" smooth="yes"/>
      <point x="79" y="539"/>
      <point x="225" y="684"/>
      <point x="418" y="684" type="curve" smooth="yes"/>
      <point x="503" y="684"/>
      <point x="580" y="661"/>
      <point x="644" y="600" type="curve"/>
      <point x="656" y="614" type="line"/>
      <point x="596" y="674"/>
      <point x="510" y="703"/>
      <point x="418" y="703" type="curve" smooth="yes"/>
      <point x="213" y="703"/>
      <point x="59" y="552"/>
      <point x="59" y="350" type="curve" smooth="yes"/>
      <point x="59" y="148"/>
      <point x="213" y="-3"/>
    </contour>
  </outline>
</glyph>
<glyph name="O" format="2">
  <advance width="836"/>
  <unicode hex="004F"/>
  <guideline x="777" y="723" angle="90"/>
  <anchor x="418" y="0" name="bottom"/>
  <anchor x="418" y="350" name="center"/>
  <anchor x="469" y="0" name="ogonek"/>
  <anchor x="418" y="700" name="top"/>
  <anchor x="59" y="700" name="topleft"/>
  <anchor x="667" y="700" name="topright"/>
  <outline>
    <contour>
      <point x="418" y="-3" type="curve" smooth="yes"/>
      <point x="623" y="-3"/>
      <point x="777" y="148"/>
      <point x="777" y="350" type="curve" smooth="yes"/>
      <point x="777" y="552"/>
      <point x="623" y="703"/>
      <point x="418" y="703" type="curve" smooth="yes"/>
      <point x="213" y="703"/>
      <point x="59" y="552"/>
      <point x="59" y="350" type="curve" smooth="yes"/>
      <point x="59" y="148"/>
      <point x="213" y="-3"/>
    </contour>
    <contour>
      <point x="418" y="16" type="curve" smooth="yes"/>
      <point x="225" y="16"/>
      <point x="79" y="159"/>
      <point x="79" y="350" type="curve" smooth="yes"/>
      <point x="79" y="541"/>
      <point x="225" y="684"/>
      <point x="418" y="684" type="curve" smooth="yes"/>
      <point x="611" y="684"/>
      <point x="757" y="541"/>
      <point x="757" y="350" type="curve" smooth="yes"/>
      <point x="757" y="159"/>
      <point x="611" y="16"/>
    </contour>
  </outline>
</glyph>
<glyph name="bracketright" format="2">
  <advance width="288"/>
  <unicode hex="005D"/>
  <outline>
    <contour>
      <point x="155" y="-194" type="line"/>
      <point x="155" y="742" type="line"/>
      <point x="25" y="742" type="line"/>
      <point x="25" y="723" type="line"/>
      <point x="135" y="723" type="line"/>
      <point x="135" y="-175" type="line"/>
      <point x="25" y="-175" type="line"/>
      <point x="25" y="-194" type="line"/>
    </contour>
  </outline>
</glyph>
<glyph name="b" format="2">
  <advance width="671"/>
  <unicode hex="0062"/>
  <outline>
    <contour>
      <point x="366" y="-3" type="curve" smooth="yes"/>
      <point x="508" y="-3"/>
      <point x="617" y="106"/>
      <point x="617" y="259" type="curve" smooth="yes"/>
      <point x="617" y="412"/>
      <point x="508" y="520"/>
      <point x="366" y="520" type="curve" smooth="yes"/>
      <point x="224" y="520"/>
      <point x="118" y="412"/>
      <point x="118" y="259" type="curve" smooth="yes"/>
      <point x="118" y="106"/>
      <point x="224" y="-3"/>
    </contour>
    <contour>
      <point x="115" y="0" type="line"/>
      <point x="135" y="0" type="line"/>
      <point x="135" y="190" type="line"/>
      <point x="125" y="260" type="line"/>
      <point x="135" y="330" type="line"/>
      <point x="135" y="742" type="line"/>
      <point x="115" y="742" type="line"/>
    </contour>
    <contour>
      <point x="366" y="16" type="curve" smooth="yes"/>
      <point x="234" y="16"/>
      <point x="135" y="116"/>
      <point x="135" y="259" type="curve" smooth="yes"/>
      <point x="135" y="402"/>
      <point x="234" y="501"/>
      <point x="366" y="501" type="curve" smooth="yes"/>
      <point x="498" y="501"/>
      <point x="597" y="402"/>
      <point x="597" y="259" type="curve" smooth="yes"/>
      <point x="597" y="116"/>
      <point x="498" y="16"/>
    </contour>
  </outline>
</glyph>
<glyph name="f" format="2">
  <advance width="311"/>
  <unicode hex="0066"/>
  <outline>
    <contour>
      <point x="123" y="0" type="line"/>
      <point x="143" y="0" type="line"/>
      <point x="143" y="503" type="line"/>
      <point x="143" y="514" type="line"/>
      <point x="143" y="613" type="line" smooth="yes"/>
      <point x="143" y="686"/>
      <point x="179" y="726"/>
      <point x="249" y="726" type="curve" smooth="yes"/>
      <point x="282" y="726"/>
      <point x="313" y="715"/>
      <point x="335" y="694" type="curve"/>
      <point x="349" y="708" type="line"/>
      <point x="325" y="733"/>
      <point x="285" y="745"/>
      <point x="248" y="745" type="curve" smooth="yes"/>
      <point x="168" y="745"/>
      <point x="123" y="694"/>
      <point x="123" y="618" type="curve" smooth="yes"/>
    </contour>
    <contour>
      <point x="23" y="498" type="line"/>
      <point x="318" y="498" type="line"/>
      <point x="318" y="517" type="line"/>
      <point x="23" y="517" type="line"/>
    </contour>
  </outline>
</glyph>
<glyph name="y" format="2">
  <advance width="508"/>
  <unicode hex="0079"/>
  <guideline x="365" y="266" angle="65.5217"/>
  <anchor x="342" y="0" name="bottom"/>
  <anchor x="239" y="517" name="top"/>
  <outline>
    <contour>
      <point x="81" y="-197" type="curve" smooth="yes"/>
      <point x="142" y="-197"/>
      <point x="188" y="-168"/>
      <point x="227" y="-83" type="curve" smooth="yes"/>
      <point x="502" y="517" type="line"/>
      <point x="479" y="517" type="line"/>
      <point x="250" y="14" type="line"/>
      <point x="245" y="7" type="line"/>
      <point x="207" y="-77" type="line" smooth="yes"/>
      <point x="171" y="-155"/>
      <point x="132" y="-178"/>
      <point x="82" y="-178" type="curve" smooth="yes"/>
      <point x="41" y="-178"/>
      <point x="12" y="-165"/>
      <point x="-16" y="-135" type="curve"/>
      <point x="-31" y="-151" type="line"/>
      <point x="-3" y="-182"/>
      <point x="36" y="-197"/>
    </contour>
    <contour>
      <point x="249" y="-11" type="line"/>
      <point x="258" y="14" type="line"/>
      <point x="29" y="517" type="line"/>
      <point x="6" y="517" type="line"/>
    </contour>
  </outline>
</glyph>
<glyph name="bar" format="2">
  <advance width="286"/>
  <unicode hex="007C"/>
  <outline>
    <contour>
      <point x="133" y="-194" type="line"/>
      <point x="153" y="-194" type="line"/>
      <point x="153" y="742" type="line"/>
      <point x="133" y="742" type="line"/>
    </contour>
  </outline>
</glyph>
<glyph name="fourthtonechinese" format="2">
  <advance width="600"/>
  <unicode hex="02CB"/>
  <anchor x="300" y="517" name="_top"/>
  <anchor x="300" y="660" name="top"/>
  <outline>
    <contour>
      <point x="315" y="607" type="line"/>
      <point x="345" y="607" type="line"/>
      <point x="205" y="717" type="line"/>
      <point x="165" y="717" type="line"/>
    </contour>
  </outline>
</glyph>
<glyph name="commaturnedabovecomb" format="2">
  <unicode hex="0312"/>
  <anchor x="300" y="517" name="_top"/>
  <anchor x="300" y="690" name="top"/>
  <outline>
    <contour>
      <point x="300" y="604" type="curve" smooth="yes"/>
      <point x="315" y="604"/>
      <point x="326" y="616"/>
      <point x="326" y="630" type="curve" smooth="yes"/>
      <point x="326" y="644"/>
      <point x="314" y="656"/>
      <point x="300" y="656" type="curve"/>
      <point x="301" y="645" type="line"/>
      <point x="325" y="759" type="line"/>
      <point x="307" y="759" type="line"/>
      <point x="279" y="659" type="line"/>
      <point x="277" y="648"/>
      <point x="274" y="641"/>
      <point x="274" y="630" type="curve" smooth="yes"/>
      <point x="274" y="618"/>
      <point x="284" y="604"/>
    </contour>
  </outline>
</glyph>
<glyph name="dieresisbelowcomb" format="2">
  <unicode hex="0324"/>
  <anchor x="300" y="0" name="_bottom"/>
  <anchor x="300" y="-129" name="bottom"/>
  <outline>
    <contour>
      <point x="375" y="-176" type="curve" smooth="yes"/>
      <point x="389" y="-176"/>
      <point x="401" y="-164"/>
      <point x="401" y="-150" type="curve" smooth="yes"/>
      <point x="401" y="-136"/>
      <point x="389" y="-124"/>
      <point x="375" y="-124" type="curve" smooth="yes"/>
      <point x="361" y="-124"/>
      <point x="349" y="-136"/>
      <point x="349" y="-150" type="curve" smooth="yes"/>
      <point x="349" y="-164"/>
      <point x="361" y="-176"/>
    </contour>
    <contour>
      <point x="225" y="-176" type="curve" smooth="yes"/>
      <point x="239" y="-176"/>
      <point x="251" y="-164"/>
      <point x="251" y="-150" type="curve" smooth="yes"/>
      <point x="251" y="-136"/>
      <point x="239" y="-124"/>
      <point x="225" y="-124" type="curve" smooth="yes"/>
      <point x="211" y="-124"/>
      <point x="199" y="-136"/>
      <point x="199" y="-150" type="curve" smooth="yes"/>
      <point x="199" y="-164"/>
      <point x="211" y="-176"/>
    </contour>
  </outline>
</glyph>
<glyph name="tse-cy" format="2">
  <advance width="672"/>
  <unicode hex="0446"/>
  <anchor x="498" y="0" name="_bottomleft"/>
  <outline>
    <contour>
      <point x="117" y="0" type="line"/>
      <point x="540" y="0" type="line"/>
      <point x="540" y="517" type="line"/>
      <point x="520" y="517" type="line"/>
      <point x="520" y="18" type="line"/>
      <point x="137" y="18" type="line"/>
      <point x="137" y="517" type="line"/>
      <point x="117" y="517" type="line"/>
    </contour>
    <contour>
      <point x="609" y="-134" type="line"/>
      <point x="629" y="-134" type="line"/>
      <point x="629" y="18" type="line"/>
      <point x="520" y="18" type="line"/>
      <point x="520" y="0" type="line"/>
      <point x="617" y="0" type="line"/>
      <point x="609" y="8" type="line"/>
    </contour>
  </outline>
</glyph>
<glyph name="dje-cy" format="2">
  <advance width="662"/>
  <unicode hex="0452"/>
  <outline>
    <contour>
      <point x="440" y="-197" type="curve" smooth="yes"/>
      <point x="519" y="-197"/>
      <point x="562" y="-146"/>
      <point x="562" y="-70" type="curve" smooth="yes"/>
      <point x="562" y="305" type="line" smooth="yes"/>
      <point x="562" y="445"/>
      <point x="482" y="520"/>
      <point x="355" y="520" type="curve" smooth="yes"/>
      <point x="243" y="520"/>
      <point x="166" y="463"/>
      <point x="136" y="373" type="curve"/>
      <point x="138" y="370" type="line"/>
      <point x="138" y="742" type="line"/>
      <point x="118" y="742" type="line"/>
      <point x="118" y="0" type="line"/>
      <point x="138" y="0" type="line"/>
      <point x="138" y="281" type="line" smooth="yes"/>
      <point x="138" y="412"/>
      <point x="220" y="501"/>
      <point x="356" y="501" type="curve" smooth="yes"/>
      <point x="473" y="501"/>
      <point x="542" y="433"/>
      <point x="542" y="305" type="curve" smooth="yes"/>
      <point x="542" y="-65" type="line" smooth="yes"/>
      <point x="542" y="-138"/>
      <point x="506" y="-178"/>
      <point x="439" y="-178" type="curve" smooth="yes"/>
      <point x="403" y="-178"/>
      <point x="372" y="-167"/>
      <point x="350" y="-146" type="curve"/>
      <point x="336" y="-160" type="line"/>
      <point x="360" y="-185"/>
      <point x="400" y="-197"/>
    </contour>
    <contour>
      <point x="-2" y="621" type="line"/>
      <point x="406" y="621" type="line"/>
      <point x="406" y="640" type="line"/>
      <point x="-2" y="640" type="line"/>
    </contour>
  </outline>
</glyph>
<glyph name="yusbig-cy" format="2">
  <advance width="632"/>
  <unicode hex="046B"/>
  <outline>
    <contour>
      <point x="29" y="0" type="line"/>
      <point x="51" y="0" type="line"/>
      <point x="106" y="119" type="line" smooth="yes"/>
      <point x="144" y="202"/>
      <point x="201" y="248"/>
      <point x="275" y="248" type="curve" smooth="yes"/>
      <point x="306" y="248" type="line"/>
      <point x="306" y="0" type="line"/>
      <point x="326" y="0" type="line"/>
      <point x="326" y="248" type="line"/>
      <point x="358" y="248" type="line" smooth="yes"/>
      <point x="431" y="248"/>
      <point x="487" y="203"/>
      <point x="526" y="119" type="curve" smooth="yes"/>
      <point x="581" y="0" type="line"/>
      <point x="603" y="0" type="line"/>
      <point x="544" y="127" type="line" smooth="yes"/>
      <point x="502" y="217"/>
      <point x="438" y="267"/>
      <point x="358" y="267" type="curve" smooth="yes"/>
      <point x="275" y="267" type="line" smooth="yes"/>
      <point x="194" y="267"/>
      <point x="130" y="218"/>
      <point x="88" y="127" type="curve" smooth="yes"/>
    </contour>
    <contour>
      <point x="316" y="267" type="line"/>
      <point x="105" y="498" type="line"/>
      <point x="528" y="498" type="line"/>
    </contour>
    <contour>
      <point x="295" y="265" type="line"/>
      <point x="337" y="265" type="line"/>
      <point x="553" y="500" type="line"/>
      <point x="553" y="517" type="line"/>
      <point x="79" y="517" type="line"/>
      <point x="79" y="500" type="line"/>
    </contour>
  </outline>
</glyph>
<glyph name="Enhook-cy" format="2">
  <advance width="818"/>
  <unicode hex="04C7"/>
  <outline>
    <contour>
      <point x="454" y="-160" type="line"/>
      <point x="535" y="-229"/>
      <point x="680" y="-202"/>
      <point x="680" y="-80" type="curve" smooth="yes"/>
      <point x="680" y="700" type="line"/>
      <point x="660" y="700" type="line"/>
      <point x="660" y="364" type="line"/>
      <point x="157" y="364" type="line"/>
      <point x="157" y="700" type="line"/>
      <point x="137" y="700" type="line"/>
      <point x="137" y="0" type="line"/>
      <point x="157" y="0" type="line"/>
      <point x="157" y="344" type="line"/>
      <point x="660" y="344" type="line"/>
      <point x="660" y="-75" type="line" smooth="yes"/>
      <point x="660" y="-183"/>
      <point x="544" y="-205"/>
      <point x="468" y="-146" type="curve"/>
    </contour>
  </outline>
</glyph>
<glyph name="won" format="2">
  <advance width="1126"/>
  <unicode hex="20A9"/>
  <outline>
    <contour>
      <point x="298" y="0" type="line"/>
      <point x="318" y="0" type="line"/>
      <point x="565" y="678" type="line"/>
      <point x="561" y="678" type="line"/>
      <point x="808" y="0" type="line"/>
      <point x="828" y="0" type="line"/>
      <point x="1078" y="700" type="line"/>
      <point x="1057" y="700" type="line"/>
      <point x="813" y="16" type="line"/>
      <point x="823" y="16" type="line"/>
      <point x="573" y="700" type="line"/>
      <point x="553" y="700" type="line"/>
      <point x="303" y="16" type="line"/>
      <point x="314" y="16" type="line"/>
      <point x="70" y="700" type="line"/>
      <point x="48" y="700" type="line"/>
    </contour>
    <contour>
      <point x="30" y="272" type="line"/>
      <point x="1096" y="272" type="line"/>
      <point x="1096" y="290" type="line"/>
      <point x="30" y="290" type="line"/>
    </contour>
    <contour>
      <point x="30" y="410" type="line"/>
      <point x="1096" y="410" type="line"/>
      <point x="1096" y="428" type="line"/>
      <point x="30" y="428" type="line"/>
    </contour>
  </outline>
</glyph>
<glyph name="northEastArrow" format="2">
  <advance width="600"/>
  <unicode hex="2197"/>
  <outline>
    <contour>
      <point x="203" y="428" type="line"/>
      <point x="416" y="392" type="line"/>
      <point x="455" y="176" type="line"/>
      <point x="474" y="195" type="line"/>
      <point x="436" y="411" type="line"/>
      <point x="222" y="447" type="line"/>
    </contour>
    <contour>
      <point x="155" y="144" type="line"/>
      <point x="170" y="129" type="line"/>
      <point x="430" y="389" type="line"/>
      <point x="415" y="404" type="line"/>
    </contour>
  </outline>
</glyph>
<glyph name="Adieresis.alt" format="2">
  <advance width="688"/>
  <outline>
    <contour>
      <point x="9" y="0" type="line"/>
      <point x="32" y="0" type="line"/>
      <point x="349" y="684" type="line"/>
      <point x="339" y="684" type="line"/>
      <point x="656" y="0" type="line"/>
      <point x="679" y="0" type="line"/>
      <point x="354" y="700" type="line"/>
      <point x="334" y="700" type="line"/>
    </contour>
    <contour>
      <point x="106" y="187" type="line"/>
      <point x="581" y="187" type="line"/>
      <point x="571" y="206" type="line"/>
      <point x="116" y="206" type="line"/>
    </contour>
    <contour>
      <point x="212" y="651" type="curve" smooth="yes"/>
      <point x="226" y="651"/>
      <point x="238" y="663"/>
      <point x="238" y="677" type="curve" smooth="yes"/>
      <point x="238" y="691"/>
      <point x="226" y="703"/>
      <point x="212" y="703" type="curve" smooth="yes"/>
      <point x="198" y="703"/>
      <point x="186" y="691"/>
      <point x="186" y="677" type="curve" smooth="yes"/>
      <point x="186" y="663"/>
      <point x="198" y="651"/>
    </contour>
    <contour>
      <point x="476" y="651" type="curve" smooth="yes"/>
      <point x="490" y="651"/>
      <point x="502" y="663"/>
      <point x="502" y="677" type="curve" smooth="yes"/>
      <point x="502" y="691"/>
      <point x="490" y="703"/>
      <point x="476" y="703" type="curve" smooth="yes"/>
      <point x="462" y="703"/>
      <point x="450" y="691"/>
      <point x="450" y="677" type="curve" smooth="yes"/>
      <point x="450" y="663"/>
      <point x="462" y="651"/>
    </contour>
  </outline>
</glyph>
<glyph name="Nje-cy.ss01" format="2">
  <advance width="1178"/>
  <outline>
    <contour>
      <point x="881" y="-3" type="curve" smooth="yes"/>
      <point x="1032" y="-3"/>
      <point x="1131" y="80"/>
      <point x="1131" y="204" type="curve" smooth="yes"/>
      <point x="1131" y="322"/>
      <point x="1042" y="396"/>
      <point x="892" y="396" type="curve" smooth="yes"/>
      <point x="649" y="396" type="line"/>
      <point x="649" y="700" type="line"/>
      <point x="629" y="700" type="line"/>
      <point x="629" y="396" type="line"/>
      <point x="157" y="396" type="line"/>
      <point x="157" y="700" type="line"/>
      <point x="137" y="700" type="line"/>
      <point x="137" y="0" type="line"/>
      <point x="157" y="0" type="line"/>
      <point x="157" y="377" type="line"/>
      <point x="629" y="377" type="line"/>
      <point x="629" y="203" type="line" smooth="yes"/>
      <point x="629" y="81"/>
      <point x="729" y="-3"/>
    </contour>
    <contour>
      <point x="881" y="16" type="curve" smooth="yes"/>
      <point x="740" y="16"/>
      <point x="649" y="91"/>
      <point x="649" y="203" type="curve" smooth="yes"/>
      <point x="649" y="377" type="line"/>
      <point x="885" y="377" type="line" smooth="yes"/>
      <point x="1028" y="377"/>
      <point x="1111" y="312"/>
      <point x="1111" y="201" type="curve" smooth="yes"/>
      <point x="1111" y="90"/>
      <point x="1021" y="16"/>
    </contour>
  </outline>
</glyph>
<glyph name="Udieresis.ss01.alt.BRACKET.133" format="2">
  <advance width="796"/>
  <outline>
    <contour>
      <point x="394" y="-3" type="curve" smooth="yes"/>
      <point x="519" y="-3"/>
      <point x="610" y="55"/>
      <point x="645" y="173" type="curve"/>
      <point x="643" y="176" type="line"/>
      <point x="643" y="0" type="line"/>
      <point x="663" y="0" type="line"/>
      <point x="663" y="700" type="line"/>
      <point x="643" y="700" type="line"/>
      <point x="643" y="299" type="line" smooth="yes"/>
      <point x="643" y="107"/>
      <point x="552" y="16"/>
      <point x="395" y="16" type="curve" smooth="yes"/>
      <point x="238" y="16"/>
      <point x="147" y="106"/>
      <point x="147" y="279" type="curve" smooth="yes"/>
      <point x="147" y="700" type="line"/>
      <point x="127" y="700" type="line"/>
      <point x="127" y="278" type="line" smooth="yes"/>
      <point x="127" y="95"/>
      <point x="230" y="-3"/>
    </contour>
    <contour>
      <point x="399" y="527" type="curve" smooth="yes"/>
      <point x="413" y="527"/>
      <point x="425" y="539"/>
      <point x="425" y="553" type="curve" smooth="yes"/>
      <point x="425" y="567"/>
      <point x="413" y="579"/>
      <point x="399" y="579" type="curve" smooth="yes"/>
      <point x="385" y="579"/>
      <point x="373" y="567"/>
      <point x="373" y="553" type="curve" smooth="yes"/>
      <point x="373" y="539"/>
      <point x="385" y="527"/>
    </contour>
    <contour>
      <point x="399" y="651" type="curve" smooth="yes"/>
      <point x="413" y="651"/>
      <point x="425" y="663"/>
      <point x="425" y="677" type="curve" smooth="yes"/>
      <point x="425" y="691"/>
      <point x="413" y="703"/>
      <point x="399" y="703" type="curve" smooth="yes"/>
      <point x="385" y="703"/>
      <point x="373" y="691"/>
      <point x="373" y="677" type="curve" smooth="yes"/>
      <point x="373" y="663"/>
      <point x="385" y="651"/>
    </contour>
  </outline>
</glyph>
<glyph name=".notdef" format="2">
  <advance width="587"/>
  <outline>
    <contour>
      <point x="40" y="0" type="line"/>
      <point x="547" y="0" type="line"/>
      <point x="547" y="700" type="line"/>
      <point x="40" y="700" type="line"/>
    </contour>
    <contour>
      <point x="120" y="70" type="line"/>
      <point x="120" y="630" type="line"/>
      <point x="467" y="630" type="line"/>
      <point x="467" y="70" type="line"/>
    </contour>
  </outline>
</glyph>
<glyph name="guilsinglleft.sc" format="2">
  <advance width="259"/>
  <guideline x="191" y="374" angle="0"/>
  <outline>
    <contour>
      <point x="191" y="113" type="line"/>
      <point x="214" y="113" type="line"/>
      <point x="82" y="279" type="line"/>
      <point x="214" y="446" type="line"/>
      <point x="191" y="446" type="line"/>
      <point x="58" y="279" type="line"/>
    </contour>
  </outline>
</glyph>
<glyph name="hookabovecomb.loclVIET" format="2">
  <anchor x="300" y="517" name="_top"/>
  <anchor x="300" y="660" name="top"/>
  <outline>
    <contour>
      <point x="303" y="603" type="line"/>
      <point x="339" y="619"/>
      <point x="357" y="644"/>
      <point x="357" y="674" type="curve" smooth="yes"/>
      <point x="357" y="707"/>
      <point x="334" y="729"/>
      <point x="297" y="729" type="curve" smooth="yes"/>
      <point x="278" y="729"/>
      <point x="259" y="723"/>
      <point x="245" y="713" type="curve"/>
      <point x="253" y="697" type="line"/>
      <point x="266" y="706"/>
      <point x="281" y="710"/>
      <point x="296" y="710" type="curve" smooth="yes"/>
      <point x="321" y="710"/>
      <point x="338" y="695"/>
      <point x="338" y="674" type="curve" smooth="yes"/>
      <point x="338" y="651"/>
      <point x="321" y="631"/>
      <point x="293" y="618" type="curve"/>
    </contour>
  </outline>
</glyph>
<glyph name="ij.sc.ss01" format="2">
  <advance width="612"/>
  <anchor x="154" y="559" name="top"/>
  <outline>
    <contour>
      <point x="284" y="-82" type="curve" smooth="yes"/>
      <point x="412" y="-82"/>
      <point x="496" y="-4"/>
      <point x="496" y="155" type="curve" smooth="yes"/>
      <point x="496" y="559" type="line"/>
      <point x="475" y="559" type="line"/>
      <point x="475" y="156" type="line" smooth="yes"/>
      <point x="475" y="8"/>
      <point x="403" y="-63"/>
      <point x="284" y="-63" type="curve" smooth="yes"/>
      <point x="224" y="-63"/>
      <point x="169" y="-45"/>
      <point x="126" y="-14" type="curve"/>
      <point x="114" y="-30" type="line"/>
      <point x="159" y="-61"/>
      <point x="218" y="-82"/>
    </contour>
    <contour>
      <point x="120" y="153" type="line"/>
      <point x="140" y="153" type="line"/>
      <point x="140" y="559" type="line"/>
      <point x="120" y="559" type="line"/>
    </contour>
  </outline>
</glyph>
<glyph name="macroncomb.narrow" format="2">
  <anchor x="300" y="517" name="_top"/>
  <anchor x="300" y="630" name="top"/>
  <outline>
    <contour>
      <point x="189" y="652" type="line"/>
      <point x="411" y="652" type="line"/>
      <point x="411" y="672" type="line"/>
      <point x="189" y="672" type="line"/>
    </contour>
  </outline>
</glyph>
<glyph name="n.sc" format="2">
  <advance width="692"/>
  <anchor x="346" y="0" name="bottom"/>
  <anchor x="346" y="559" name="top"/>
  <outline>
    <contour>
      <point x="122" y="0" type="line"/>
      <point x="142" y="0" type="line"/>
      <point x="142" y="535" type="line"/>
      <point x="132" y="535" type="line"/>
      <point x="553" y="0" type="line"/>
      <point x="570" y="0" type="line"/>
      <point x="570" y="559" type="line"/>
      <point x="550" y="559" type="line"/>
      <point x="550" y="24" type="line"/>
      <point x="560" y="24" type="line"/>
      <point x="139" y="559" type="line"/>
      <point x="122" y="559" type="line"/>
    </contour>
  </outline>
</glyph>
<glyph name="p.sc" format="2">
  <advance width="605"/>
  <outline>
    <contour>
      <point x="122" y="0" type="line"/>
      <point x="142" y="0" type="line"/>
      <point x="142" y="200" type="line"/>
      <point x="133" y="190" type="line"/>
      <point x="316" y="190" type="line" smooth="yes"/>
      <point x="455" y="190"/>
      <point x="539" y="258"/>
      <point x="539" y="375" type="curve" smooth="yes"/>
      <point x="539" y="491"/>
      <point x="455" y="559"/>
      <point x="316" y="559" type="curve" smooth="yes"/>
      <point x="122" y="559" type="line"/>
    </contour>
    <contour>
      <point x="142" y="200" type="line"/>
      <point x="142" y="549" type="line"/>
      <point x="133" y="540" type="line"/>
      <point x="317" y="540" type="line" smooth="yes"/>
      <point x="448" y="540"/>
      <point x="519" y="480"/>
      <point x="519" y="375" type="curve" smooth="yes"/>
      <point x="519" y="270"/>
      <point x="448" y="209"/>
      <point x="317" y="209" type="curve" smooth="yes"/>
      <point x="133" y="209" type="line"/>
    </contour>
  </outline>
</glyph>
<glyph name="three.dnom" format="2">
  <advance width="430"/>
  <outline>
    <contour>
      <point x="203" y="-2" type="curve" smooth="yes"/>
      <point x="307" y="-2"/>
      <point x="361" y="46"/>
      <point x="361" y="115" type="curve" smooth="yes"/>
      <point x="361" y="184"/>
      <point x="307" y="231"/>
      <point x="203" y="231" type="curve" smooth="yes"/>
      <point x="186" y="231" type="line"/>
      <point x="190" y="226" type="line"/>
      <point x="344" y="401" type="line"/>
      <point x="344" y="415" type="line"/>
      <point x="45" y="415" type="line"/>
      <point x="45" y="397" type="line"/>
      <point x="326" y="397" type="line"/>
      <point x="324" y="404" type="line"/>
      <point x="170" y="229" type="line"/>
      <point x="170" y="214" type="line"/>
      <point x="202" y="214" type="line" smooth="yes"/>
      <point x="297" y="214"/>
      <point x="342" y="175"/>
      <point x="342" y="115" type="curve" smooth="yes"/>
      <point x="342" y="55"/>
      <point x="297" y="16"/>
      <point x="203" y="16" type="curve" smooth="yes"/>
      <point x="132" y="16"/>
      <point x="77" y="39"/>
      <point x="51" y="70" type="curve"/>
      <point x="41" y="55" type="line"/>
      <point x="68" y="21"/>
      <point x="130" y="-2"/>
    </contour>
  </outline>
</glyph>
<glyph name="zero.dnom" format="2">
  <advance width="430"/>
  <outline>
    <contour>
      <point x="215" y="-2" type="curve" smooth="yes"/>
      <point x="319" y="-2"/>
      <point x="390" y="80"/>
      <point x="390" y="208" type="curve" smooth="yes"/>
      <point x="390" y="335"/>
      <point x="319" y="417"/>
      <point x="215" y="417" type="curve" smooth="yes"/>
      <point x="111" y="417"/>
      <point x="40" y="335"/>
      <point x="40" y="208" type="curve" smooth="yes"/>
      <point x="40" y="80"/>
      <point x="111" y="-2"/>
    </contour>
    <contour>
      <point x="215" y="16" type="curve" smooth="yes"/>
      <point x="123" y="16"/>
      <point x="59" y="89"/>
      <point x="59" y="208" type="curve" smooth="yes"/>
      <point x="59" y="326"/>
      <point x="123" y="399"/>
      <point x="215" y="399" type="curve" smooth="yes"/>
      <point x="307" y="399"/>
      <point x="371" y="326"/>
      <point x="371" y="208" type="curve" smooth="yes"/>
      <point x="371" y="89"/>
      <point x="307" y="16"/>
    </contour>
  </outline>
</glyph>
